:SAMPLES-PER-SECOND 30
:FRAME-RANGE 1-663
:FULLY-SPECIFIED
:DEGREES
270
root  9.70792 39.1359 107.813 -175.053 -44.4309 -170.049
RightUpLeg  -9.86775 -16.9094 -1.07916
RightLeg  30.3818 -11.2823 -7.29211
RightFoot  -10.0824 -0.221825 13.8618
RightToes  2.91037e-010 0 -3.6325e-017
Spine  13.3972 3.08598 1.89138
Spine1  2.50878 5.84551 -11.1598
HEad  -5.19251 -5.18356 2.43784
LeftShoulder1  2.2522 -3.24771 -27.2619
LeftArm  43.5158 -27.057 -60.6521
LeftForeArm  -20.2972 -22.6804 -6.42791
LeftHand  0.279351 -0.60384 -5.38036
RightShoulder  13.1173 32.2174 30.2854
RightArm  -36.1167 25.8792 4.57569
RightForeArm  14.8892 -2.16103 7.77949
RightHand  0.504298 3.21376 6.56204
LeftUpLeg  -22.6373 12.0987 4.36151
LeftLeg  11.5148 -4.66413 -3.77923
LeftFoot  -0.319662 0.0706417 -0.712388
LeftToes  -4.9116e-011 5.71383e-011 -3.31847e-011
271
root  9.64955 39.1548 107.735 -174.889 -42.4615 -170.338
RightUpLeg  -11.2177 -17.1115 -1.23063
RightLeg  30.8176 -11.2957 -7.41957
RightFoot  -9.78139 -0.253858 13.6812
RightToes  2.91037e-010 0 -3.6325e-017
Spine  13.1097 3.14184 1.11957
Spine1  2.35457 5.73563 -10.8301
HEad  -4.91058 -4.73128 2.43108
LeftShoulder1  2.23041 -3.16988 -27.3257
LeftArm  42.7002 -26.9231 -59.8612
LeftForeArm  -20.1661 -21.6824 -7.17118
LeftHand  0.276366 -0.538003 -5.3894
RightShoulder  13.5852 31.5256 32.384
RightArm  -34.3612 24.1956 5.28117
RightForeArm  15.593 -0.971836 8.34776
RightHand  0.495501 3.30427 6.36962
LeftUpLeg  -22.04 12.8791 4.63787
LeftLeg  11.5673 -3.43894 -3.7908
LeftFoot  -0.68712 0.0745372 -0.755105
LeftToes  -4.9116e-011 5.71383e-011 -3.31847e-011
272
root  9.61991 39.1726 107.639 -175.113 -41.0406 -170.492
RightUpLeg  -11.972 -17.2633 -1.4146
RightLeg  31.1923 -11.3049 -7.52886
RightFoot  -9.52885 -0.282456 13.6827
RightToes  2.91037e-010 0 -3.6325e-017
Spine  12.988 2.95555 0.559288
Spine1  2.44357 5.38692 -10.3387
HEad  -4.6415 -4.10179 2.14
LeftShoulder1  2.21624 -3.09379 -27.5012
LeftArm  41.2256 -26.8979 -59.0239
LeftForeArm  -18.9079 -20.6183 -8.09914
LeftHand  0.270078 -0.458664 -5.34688
RightShoulder  13.9431 30.43 34.7159
RightArm  -32.0326 23.0375 5.78289
RightForeArm  16.0386 -0.357767 9.12871
RightHand  0.479943 3.35881 6.11995
LeftUpLeg  -21.2627 13.4489 4.99057
LeftLeg  11.6929 -2.69601 -3.76812
LeftFoot  -1.04526 0.0922411 -0.954106
LeftToes  -4.9116e-011 5.71383e-011 -3.31847e-011
273
root  9.63008 39.1828 107.533 -175.23 -39.7288 -170.71
RightUpLeg  -12.7641 -17.3927 -1.69686
RightLeg  31.4881 -11.182 -7.53298
RightFoot  -9.02546 -0.335253 13.4793
RightToes  2.91037e-010 0 -3.6325e-017
Spine  12.7102 2.78926 0.178832
Spine1  2.67422 5.1263 -10.0088
HEad  -4.44753 -3.65264 1.84419
LeftShoulder1  2.21724 -3.06732 -27.656
LeftArm  39.675 -26.9473 -58.3208
LeftForeArm  -17.4274 -19.5403 -9.11089
LeftHand  0.251493 -0.35569 -5.07817
RightShoulder  14.1763 29.459 36.6299
RightArm  -29.8679 21.1217 6.72594
RightForeArm  17.0638 0.106631 9.66687
RightHand  0.49738 3.5026 6.237
LeftUpLeg  -20.4626 13.7611 5.40811
LeftLeg  11.6 -1.83455 -3.79257
LeftFoot  -1.42389 0.120883 -1.29464
LeftToes  -4.9116e-011 5.71383e-011 -3.31847e-011
274
root  9.67614 39.1888 107.419 -175.313 -38.5459 -171.048
RightUpLeg  -13.3112 -17.7371 -2.136
RightLeg  31.1196 -11.1664 -7.42123
RightFoot  -8.62381 -0.37228 13.1587
RightToes  2.91037e-010 0 -3.6325e-017
Spine  12.6194 2.57171 -0.17807
Spine1  2.71537 4.80788 -9.72053
HEad  -4.21839 -3.28795 1.55038
LeftShoulder1  2.20301 -3.01366 -27.7166
LeftArm  38.2947 -26.731 -57.7514
LeftForeArm  -16.8145 -18.8772 -9.74557
LeftHand  0.246367 -0.277993 -5.05207
RightShoulder  14.3354 28.4284 38.491
RightArm  -27.9135 19.0559 7.8007
RightForeArm  17.3861 0.0964863 10.1018
RightHand  0.517675 3.66574 6.37179
LeftUpLeg  -19.5108 13.59 5.86089
LeftLeg  11.2007 -0.484656 -3.79656
LeftFoot  -1.6869 0.143936 -1.58438
LeftToes  -4.9116e-011 5.71383e-011 -3.31847e-011
275
root  9.76711 39.2187 107.266 -175.396 -36.9932 -171.319
RightUpLeg  -13.6091 -17.8452 -2.48253
RightLeg  29.497 -11.5213 -7.1924
RightFoot  -8.12703 -0.41719 12.841
RightToes  2.91037e-010 0 -3.6325e-017
Spine  12.2831 2.60242 -0.439668
Spine1  2.84865 4.80889 -9.59417
HEad  -3.86841 -3.08019 1.39416
LeftShoulder1  2.19097 -2.98012 -27.7053
LeftArm  37.3131 -26.2624 -57.3204
LeftForeArm  -16.5858 -18.6046 -9.99213
LeftHand  0.259739 -0.283162 -5.32201
RightShoulder  14.4324 27.0506 40.7692
RightArm  -25.4425 17.1963 8.50617
RightForeArm  16.7694 -0.371867 10.7809
RightHand  0.503482 3.47289 6.33983
LeftUpLeg  -18.2978 13.463 6.68015
LeftLeg  10.4992 1.04472 -4.0568
LeftFoot  -1.85547 0.181023 -2.04754
LeftToes  -4.9116e-011 5.71383e-011 -3.31847e-011
276
root  9.88592 39.2354 107.101 -175.338 -35.621 -171.856
RightUpLeg  -13.6714 -18.2161 -3.01746
RightLeg  26.9091 -11.9214 -6.71571
RightFoot  -7.81911 -0.433522 12.319
RightToes  2.91037e-010 0 -3.6325e-017
Spine  11.9492 2.5653 -0.874946
Spine1  3.06478 4.7072 -9.34311
HEad  -3.58137 -2.81911 1.15024
LeftShoulder1  2.16574 -2.86662 -27.9161
LeftArm  37.0855 -25.6479 -56.7934
LeftForeArm  -16.8687 -18.907 -9.6802
LeftHand  0.269718 -0.319326 -5.48772
RightShoulder  14.4598 25.7714 42.8315
RightArm  -23.646 15.0043 9.11038
RightForeArm  16.6033 -0.817006 11.185
RightHand  0.549582 3.5219 6.89948
LeftUpLeg  -16.8036 12.3691 7.28384
LeftLeg  9.1202 3.50759 -4.10537
LeftFoot  -1.93532 0.212498 -2.44182
LeftToes  -4.9116e-011 5.71383e-011 -3.31847e-011
277
root  10.0307 39.2414 106.907 -175.185 -33.9743 -172.51
RightUpLeg  -13.5844 -18.5454 -3.49612
RightLeg  23.2429 -11.9248 -5.76455
RightFoot  -7.43268 -0.478462 12.488
RightToes  2.91037e-010 0 -3.6325e-017
Spine  11.7193 2.59466 -1.30646
Spine1  3.0489 4.71207 -9.28026
HEad  -3.2045 -2.41389 0.857549
LeftShoulder1  2.13084 -2.70805 -28.229
LeftArm  37.172 -24.6482 -56.1682
LeftForeArm  -17.4251 -19.7113 -8.86161
LeftHand  0.288458 -0.481936 -5.68792
RightShoulder  14.4145 24.6642 44.5077
RightArm  -21.8064 12.5566 9.78476
RightForeArm  15.4725 -1.37873 11.7116
RightHand  0.546619 3.32547 7.03085
LeftUpLeg  -15.4457 11.7438 7.52246
LeftLeg  7.9943 5.59632 -3.80099
LeftFoot  -2.0208 0.263623 -3.08519
LeftToes  -4.9116e-011 5.71383e-011 -3.31847e-011
278
root  10.2283 39.2354 106.689 -174.667 -32.3274 -173.434
RightUpLeg  -13.8998 -19.4111 -3.8056
RightLeg  19.4711 -11.6032 -4.71882
RightFoot  -6.76227 -0.533889 12.1555
RightToes  2.91037e-010 0 -3.6325e-017
Spine  11.3246 2.57269 -2.0617
Spine1  3.02408 4.58479 -8.98699
HEad  -3.0899 -1.91466 0.601036
LeftShoulder1  2.08574 -2.51578 -28.5823
LeftArm  36.9729 -23.6624 -55.0955
LeftForeArm  -18.433 -20.8569 -7.74942
LeftHand  0.307521 -0.623971 -5.90601
RightShoulder  14.2006 23.0105 46.7169
RightArm  -19.7253 11.2031 9.96699
RightForeArm  14.805 -2.26628 12.3472
RightHand  0.54356 3.20564 7.09714
LeftUpLeg  -14.3498 12.0455 7.56465
LeftLeg  6.92016 6.81187 -4.00871
LeftFoot  -1.90832 0.325806 -3.80999
LeftToes  -4.9116e-011 5.71383e-011 -3.31847e-011
279
root  10.4571 39.2377 106.432 -174.271 -31.0297 -174.306
RightUpLeg  -14.0339 -20.8642 -3.80467
RightLeg  15.841 -12.2034 -3.88003
RightFoot  -6.31363 -0.570106 11.9624
RightToes  2.91037e-010 0 -3.6325e-017
Spine  11.0846 2.4525 -2.43885
Spine1  3.06403 4.41538 -8.8079
HEad  -3.00004 -1.47331 0.257795
LeftShoulder1  2.06783 -2.4193 -28.8493
LeftArm  35.8245 -22.9902 -54.1193
LeftForeArm  -18.4361 -21.4286 -7.19949
LeftHand  0.319496 -0.706641 -6.04495
RightShoulder  13.8458 21.5829 48.2077
RightArm  -18.836 9.39438 10.7435
RightForeArm  14.7967 -3.25332 12.3817
RightHand  0.540743 3.11341 7.14316
LeftUpLeg  -13.1901 12.055 7.57282
LeftLeg  5.74082 7.90927 -4.04373
LeftFoot  -1.74661 0.41224 -4.78635
LeftToes  -4.9116e-011 5.71383e-011 -3.31847e-011
280
root  10.7307 39.2287 106.138 -174.001 -29.7264 -174.956
RightUpLeg  -13.8654 -20.417 -3.97364
RightLeg  12.6213 -15.3791 -2.33077
RightFoot  -5.93375 -0.572228 11.225
RightToes  2.91037e-010 0 -3.6325e-017
Spine  10.786 2.28642 -2.46838
Spine1  3.18782 4.25944 -8.73145
HEad  -2.82496 -0.713692 -0.253109
LeftShoulder1  2.04451 -2.32879 -28.9935
LeftArm  33.6299 -22.3791 -53.1019
LeftForeArm  -17.9441 -21.6794 -6.9267
LeftHand  0.339938 -0.779839 -6.35054
RightShoulder  13.3898 20.2385 49.2968
RightArm  -17.1348 7.56855 11.585
RightForeArm  12.6091 -3.43199 12.9887
RightHand  0.525114 2.75299 7.26744
LeftUpLeg  -12.1045 12.0379 7.73449
LeftLeg  4.66061 9.17168 -3.89688
LeftFoot  -1.53609 0.49052 -5.60948
LeftToes  -4.9116e-011 5.71383e-011 -3.31847e-011
281
root  11.0298 39.1933 105.782 -173.699 -28.6056 -175.717
RightUpLeg  -13.2449 -19.0348 -4.48223
RightLeg  9.62249 -18.631 0.0410319
RightFoot  -5.69468 -0.598198 11.3065
RightToes  2.91037e-010 0 -3.6325e-017
Spine  10.2037 2.01487 -2.69632
Spine1  3.55085 3.94185 -8.42489
HEad  -2.50647 0.405567 -0.817193
LeftShoulder1  2.01721 -2.20743 -29.2646
LeftArm  31.3534 -21.5585 -51.7492
LeftForeArm  -18.093 -22.3217 -6.44705
LeftHand  0.343857 -0.808236 -6.39173
RightShoulder  13.0822 19.2248 50.3292
RightArm  -15.8501 6.05817 12.0231
RightForeArm  11.6555 -3.51083 13.4324
RightHand  0.57714 2.66313 8.10299
LeftUpLeg  -11.1935 12.1411 7.91988
LeftLeg  4.14272 9.93314 -3.86584
LeftFoot  -1.56404 0.569874 -6.54969
LeftToes  -4.9116e-011 5.71383e-011 -3.31847e-011
282
root  11.3801 39.1255 105.366 -173.552 -27.4442 -176.631
RightUpLeg  -12.3722 -15.8202 -4.93631
RightLeg  7.33457 -20.3077 1.62767
RightFoot  -5.15978 -0.637503 11.1205
RightToes  2.91037e-010 0 -3.6325e-017
Spine  9.91408 1.86419 -3.24488
Spine1  3.63514 3.60515 -7.79213
HEad  -1.98904 1.76268 -1.3174
LeftShoulder1  2.00727 -2.09504 -29.8042
LeftArm  28.706 -20.4916 -49.8798
LeftForeArm  -17.7669 -23.2835 -5.98907
LeftHand  0.369976 -0.8938 -6.77859
RightShoulder  12.7686 18.4257 50.9194
RightArm  -14.6024 5.04005 12.5209
RightForeArm  11.808 -3.86671 13.7869
RightHand  0.581 2.69758 8.12072
LeftUpLeg  -10.3059 12.3401 8.10457
LeftLeg  4.25729 10.7282 -3.77948
LeftFoot  -1.74266 0.636603 -7.45179
LeftToes  -4.9116e-011 5.71383e-011 -3.31847e-011
283
root  11.7799 39.0313 104.866 -173.642 -26.38 -177.579
RightUpLeg  -11.1147 -12.6029 -4.93852
RightLeg  5.68166 -20.3265 2.29221
RightFoot  -5.2033 -0.647066 11.3703
RightToes  2.91037e-010 0 -3.6325e-017
Spine  9.59299 1.6845 -3.51918
Spine1  3.87748 3.35644 -7.61007
HEad  -1.45598 3.23029 -1.68427
LeftShoulder1  1.97501 -1.96819 -30.0481
LeftArm  25.0794 -19.2277 -47.8346
LeftForeArm  -16.1089 -24.3261 -5.97774
LeftHand  0.393567 -1.02736 -7.04997
RightShoulder  12.6579 17.9522 51.588
RightArm  -13.1671 4.09266 12.7243
RightForeArm  11.527 -3.26661 14.2535
RightHand  0.576762 2.70784 8.0491
LeftUpLeg  -9.4039 12.6531 8.4203
LeftLeg  5.06583 11.1773 -3.57229
LeftFoot  -2.19067 0.689663 -8.4444
LeftToes  -4.9116e-011 5.71383e-011 -3.31847e-011
284
root  12.1642 39.0678 104.321 -174.072 -25.3681 -177.961
RightUpLeg  -10.1366 -8.9672 -4.20474
RightLeg  5.11537 -20.9278 2.11473
RightFoot  -3.84872 -0.4934 7.12468
RightToes  2.91037e-010 0 -3.6325e-017
Spine  9.27464 1.63806 -2.42969
Spine1  4.13519 3.26963 -7.27636
HEad  -0.796647 4.5723 -2.05125
LeftShoulder1  1.95653 -1.86065 -30.4309
LeftArm  21.5888 -17.8585 -45.5454
LeftForeArm  -14.6376 -25.4265 -6.16499
LeftHand  0.408007 -1.06655 -7.26277
RightShoulder  12.4072 17.3818 51.9472
RightArm  -12.2344 3.32895 13.0485
RightForeArm  10.6502 -1.81109 14.4632
RightHand  0.597235 2.77195 8.2703
LeftUpLeg  -7.50556 12.6019 9.08589
LeftLeg  3.99179 12.1632 -3.28553
LeftFoot  -1.71896 0.794894 -9.30799
LeftToes  -4.9116e-011 5.71383e-011 -3.31847e-011
